<svg height='100px' width='100px'  fill="#000000" xmlns:dc="http://purl.org/dc/elements/1.1/" xmlns:cc="http://creativecommons.org/ns#" xmlns:rdf="http://www.w3.org/1999/02/22-rdf-syntax-ns#" xmlns:svg="http://www.w3.org/2000/svg" xmlns="http://www.w3.org/2000/svg" xmlns:sodipodi="http://sodipodi.sourceforge.net/DTD/sodipodi-0.dtd" xmlns:inkscape="http://www.inkscape.org/namespaces/inkscape" viewBox="0 0 333.33269 333.33269" version="1.1" x="0px" y="0px"><path d="m 237.43544,99.251322 c -11.06151,4.846148 -7.34614,17.584578 1.53846,18.715348 12.28459,1.57692 14.82305,-17.27689 2.30769,-18.715348 -1.60769,-0.36923 -2.33077,-0.138461 -3.84615,0 z M 198.97398,60.789858 c -11.06152,4.846145 -7.34614,17.584581 1.53846,18.715349 12.28459,1.57692 14.82305,-17.27689 2.30769,-18.715349 -1.60769,-0.36923 -2.33077,-0.138461 -3.84615,0 z m 76.92293,0 c -11.06152,4.846145 -7.34614,17.584581 1.53846,18.715349 12.28459,1.57692 14.82304,-17.27689 2.30768,-18.715349 -1.60769,-0.36923 -2.33076,-0.138461 -3.84614,0 z m 0,76.922922 c -11.06152,4.84615 -7.34614,17.58458 1.53846,18.71535 12.28459,1.57692 14.82304,-17.27689 2.30768,-18.71535 -1.60769,-0.36923 -2.33076,-0.13846 -3.84614,0 z m -76.92293,0 c -11.06152,4.84615 -7.34614,17.58458 1.53846,18.71535 12.28459,1.57692 14.82305,-17.27689 2.30769,-18.71535 -1.60769,-0.36923 -2.33077,-0.13846 -3.84615,0 z m 19.23073,-105.59979 80.76908,0 c 12.73074,-0.06154 17.66919,5.992297 17.69227,18.338427 l 0,116.922853 c -0.0231,13.0769 -5.38461,18.43843 -18.4615,18.4615 l -116.92285,0 c -13.0769,-0.0231 -18.43843,-5.3846 -18.46151,-18.4615 l 0,-101.538268 0,-15.384585 c 0.0154,-9.361521 2.36923,-15.676893 12.30767,-18.338427 z m -97.69212,38.338388 0,19.230732 c -46.153758,0 -103.845953,38.46146 -103.845953,107.6921 0,49.99991 42.30761,103.84595 103.845953,103.84595 57.6922,0 107.6921,-46.15375 107.6921,-103.84595 l -38.46146,0 c 0,38.46147 -34.61532,65.38449 -69.23064,65.38449 -34.615318,0 -65.38449,-30.76917 -65.38449,-65.38449 0,-34.61532 26.923025,-69.23064 65.38449,-69.23064 l 0,19.23073 38.46147,-38.46146 z" style="" fill="#000000" fill-opacity="1" stroke="none"></path></svg>