<svg xmlns:dc="http://purl.org/dc/elements/1.1/" xmlns:cc="http://creativecommons.org/ns#" xmlns:rdf="http://www.w3.org/1999/02/22-rdf-syntax-ns#" xmlns:svg="http://www.w3.org/2000/svg" xmlns="http://www.w3.org/2000/svg" xmlns:sodipodi="http://sodipodi.sourceforge.net/DTD/sodipodi-0.dtd" xmlns:inkscape="http://www.inkscape.org/namespaces/inkscape" viewBox="0 0 6.3499999 7.93750025" version="1.1" x="0px" y="0px"><g transform="translate(0,-290.64999)"><path style="color:#000000;font-style:normal;font-variant:normal;font-weight:normal;font-stretch:normal;font-size:medium;line-height:normal;font-family:sans-serif;font-variant-ligatures:normal;font-variant-position:normal;font-variant-caps:normal;font-variant-numeric:normal;font-variant-alternates:normal;font-feature-settings:normal;text-indent:0;text-align:start;text-decoration:none;text-decoration-line:none;text-decoration-style:solid;text-decoration-color:#000000;letter-spacing:normal;word-spacing:normal;text-transform:none;writing-mode:lr-tb;direction:ltr;text-orientation:mixed;dominant-baseline:auto;baseline-shift:baseline;text-anchor:start;white-space:normal;shape-padding:0;clip-rule:nonzero;display:inline;overflow:visible;visibility:visible;opacity:1;isolation:auto;mix-blend-mode:normal;color-interpolation:sRGB;color-interpolation-filters:linearRGB;solid-color:#000000;solid-opacity:1;vector-effect:none;fill:#000000;fill-opacity:1;fill-rule:evenodd;stroke:none;stroke-width:2;stroke-linecap:round;stroke-linejoin:round;stroke-miterlimit:4;stroke-dasharray:none;stroke-dashoffset:0;stroke-opacity:1;paint-order:stroke fill markers;color-rendering:auto;image-rendering:auto;shape-rendering:auto;text-rendering:auto;enable-background:accumulate" d="M 19.001953 0.99804688 C 17.150313 0.99804688 15.591378 2.2840638 15.142578 4.0019531 L 2 4.0019531 A 1.0001001 1.0001001 0 0 0 1.8964844 4.0019531 A 1.0023138 1.0023138 0 0 0 2 6.0039062 L 15.144531 6.0039062 C 15.596059 7.7178303 17.153129 9 19.001953 9 C 21.199247 9 23.001953 7.1972661 23.001953 5 C 23.001953 2.8026961 21.199247 0.99804688 19.001953 0.99804688 z M 19.001953 2.9980469 C 20.118367 2.9980469 21.001953 3.8835654 21.001953 5 C 21.001953 6.1163968 20.118367 7 19.001953 7 C 17.885539 7 17 6.1163968 17 5 C 17 3.8835654 17.885539 2.9980469 19.001953 2.9980469 z M 12.003906 8.0039062 C 10.152749 8.0039062 8.5937998 9.2844435 8.1445312 11 L 2 11 A 1.0001001 1.0001001 0 0 0 1.8964844 11 A 1.0023138 1.0023138 0 0 0 2 13.001953 L 8.1464844 13.001953 C 8.5980117 14.715891 10.155083 15.998047 12.003906 15.998047 C 13.85273 15.998047 15.403646 14.715891 15.853516 13.001953 L 21.998047 13.001953 A 1.0009765 1.0009765 0 0 0 21.998047 11 L 15.855469 11 C 15.407851 9.2844435 13.855063 8.0039062 12.003906 8.0039062 z M 12.003906 9.9960938 C 13.12032 9.9960938 14.003906 10.881612 14.003906 11.998047 C 14.003906 13.114444 13.12032 13.998047 12.003906 13.998047 C 10.887492 13.998047 10.001953 13.114444 10.001953 11.998047 C 10.001953 10.881612 10.887492 9.9960938 12.003906 9.9960938 z M 4.9980469 15.001953 C 2.8007526 15.001953 0.99609386 16.804687 0.99609375 19.001953 C 0.99609386 21.199257 2.8007526 23.003906 4.9980469 23.003906 C 6.8492039 23.003906 8.4062 21.717213 8.8554688 20 L 21.998047 20 A 1.0009765 1.0009765 0 1 0 21.998047 17.998047 L 8.8535156 17.998047 C 8.401988 16.284123 6.8468704 15.001953 4.9980469 15.001953 z M 4.9980469 17.001953 C 6.1144611 17.001953 6.9980469 17.885556 6.9980469 19.001953 C 6.9980469 20.118388 6.1144611 21.003906 4.9980469 21.003906 C 3.8816326 21.003906 2.9960938 20.118388 2.9960938 19.001953 C 2.9960938 17.885556 3.8816326 17.001953 4.9980469 17.001953 z " transform="matrix(0.26458334,0,0,0.26458334,0,290.64999)"/></g><text x="0" y="21.3500002" fill="#000000" font-size="5px" font-weight="bold" font-family="'Helvetica Neue', Helvetica, Arial-Unicode, Arial, Sans-serif">Created by Gajah Mada Studio</text><text x="0" y="26.3500002" fill="#000000" font-size="5px" font-weight="bold" font-family="'Helvetica Neue', Helvetica, Arial-Unicode, Arial, Sans-serif">from the Noun Project</text></svg>